<svg aria-hidden="true" style="position: absolute; width: 0; height: 0; overflow: hidden;" version="1.1" xmlns="http://www.w3.org/2000/svg" xmlns:xlink="http://www.w3.org/1999/xlink">
<defs>
<symbol id="icon-arrow-left" viewBox="0 0 31 32">
<path d="M23.040 16c0 0.255-0.101 0.499-0.281 0.679s-0.424 0.281-0.679 0.281h-11.123l4.122 4.12c0.089 0.089 0.16 0.195 0.208 0.312s0.073 0.242 0.073 0.368-0.025 0.251-0.073 0.368c-0.048 0.117-0.119 0.223-0.208 0.312s-0.195 0.16-0.312 0.208c-0.117 0.048-0.242 0.073-0.368 0.073s-0.251-0.025-0.368-0.073c-0.117-0.048-0.223-0.119-0.312-0.208l-5.76-5.76c-0.089-0.089-0.16-0.195-0.209-0.312s-0.073-0.242-0.073-0.368c0-0.126 0.025-0.251 0.073-0.368s0.119-0.223 0.209-0.312l5.76-5.76c0.18-0.18 0.425-0.282 0.68-0.282s0.499 0.101 0.68 0.282c0.18 0.18 0.281 0.425 0.281 0.68s-0.101 0.499-0.281 0.68l-4.122 4.12h11.123c0.255 0 0.499 0.101 0.679 0.281s0.281 0.424 0.281 0.679z"></path>
</symbol>
<symbol id="icon-chart" viewBox="0 0 31 32">
<path d="M1.92 21.76c0-0.509 0.202-0.998 0.562-1.358s0.848-0.562 1.358-0.562h3.84c0.509 0 0.998 0.202 1.358 0.562s0.562 0.849 0.562 1.358v5.76c0 0.509-0.202 0.998-0.562 1.358s-0.848 0.562-1.358 0.562h-3.84c-0.509 0-0.998-0.202-1.358-0.562s-0.562-0.849-0.562-1.358v-5.76zM11.52 14.080c0-0.509 0.202-0.998 0.562-1.358s0.848-0.562 1.358-0.562h3.84c0.509 0 0.998 0.202 1.358 0.562s0.562 0.848 0.562 1.358v13.44c0 0.509-0.202 0.998-0.562 1.358s-0.849 0.562-1.358 0.562h-3.84c-0.509 0-0.998-0.202-1.358-0.562s-0.562-0.849-0.562-1.358v-13.44zM21.12 4.48c0-0.509 0.202-0.998 0.562-1.358s0.849-0.562 1.358-0.562h3.84c0.509 0 0.998 0.202 1.358 0.562s0.562 0.848 0.562 1.358v23.040c0 0.509-0.202 0.998-0.562 1.358s-0.849 0.562-1.358 0.562h-3.84c-0.509 0-0.998-0.202-1.358-0.562s-0.562-0.849-0.562-1.358v-23.040z"></path>
</symbol>
<symbol id="icon-dashboard" viewBox="0 0 31 32">
<path d="M1.92 5.44c0-0.764 0.303-1.496 0.844-2.036s1.273-0.844 2.036-0.844h5.76c0.764 0 1.496 0.303 2.036 0.844s0.844 1.273 0.844 2.036v5.76c0 0.764-0.303 1.496-0.844 2.036s-1.273 0.844-2.036 0.844h-5.76c-0.764 0-1.496-0.303-2.036-0.844s-0.844-1.273-0.844-2.036v-5.76zM17.28 5.44c0-0.764 0.303-1.496 0.844-2.036s1.273-0.844 2.036-0.844h5.76c0.764 0 1.496 0.303 2.036 0.844s0.844 1.273 0.844 2.036v5.76c0 0.764-0.303 1.496-0.844 2.036s-1.273 0.844-2.036 0.844h-5.76c-0.764 0-1.496-0.303-2.036-0.844s-0.844-1.273-0.844-2.036v-5.76zM1.92 20.8c0-0.764 0.303-1.496 0.844-2.036s1.273-0.844 2.036-0.844h5.76c0.764 0 1.496 0.303 2.036 0.844s0.844 1.273 0.844 2.036v5.76c0 0.764-0.303 1.496-0.844 2.036s-1.273 0.844-2.036 0.844h-5.76c-0.764 0-1.496-0.303-2.036-0.844s-0.844-1.273-0.844-2.036v-5.76zM17.28 20.8c0-0.764 0.303-1.496 0.844-2.036s1.273-0.844 2.036-0.844h5.76c0.764 0 1.496 0.303 2.036 0.844s0.844 1.273 0.844 2.036v5.76c0 0.764-0.303 1.496-0.844 2.036s-1.273 0.844-2.036 0.844h-5.76c-0.764 0-1.496-0.303-2.036-0.844s-0.844-1.273-0.844-2.036v-5.76z"></path>
</symbol>
<symbol id="icon-grown-up" viewBox="0 0 30 32">
<path d="M17.675 6.949c0-0.28 0.107-0.548 0.296-0.746s0.447-0.309 0.715-0.309h8.091c0.268 0 0.525 0.111 0.715 0.309s0.296 0.466 0.296 0.746v8.435c0 0.28-0.107 0.548-0.296 0.746s-0.447 0.309-0.715 0.309c-0.268 0-0.525-0.111-0.715-0.309s-0.296-0.466-0.296-0.746v-5.483l-7.308 9.315c-0.089 0.114-0.201 0.207-0.327 0.273s-0.264 0.104-0.405 0.112-0.282-0.016-0.414-0.069c-0.132-0.053-0.251-0.134-0.351-0.238l-5.233-5.455-7.395 10.601c-0.162 0.214-0.397 0.355-0.656 0.393s-0.522-0.031-0.734-0.192c-0.212-0.16-0.355-0.4-0.401-0.669s0.011-0.545 0.157-0.772l8.091-11.598c0.086-0.123 0.196-0.226 0.324-0.3s0.269-0.119 0.415-0.131c0.146-0.012 0.292 0.009 0.429 0.062s0.262 0.136 0.365 0.243l5.278 5.504 7.044-8.975h-5.957c-0.268 0-0.526-0.111-0.715-0.309s-0.296-0.466-0.296-0.746z"></path>
</symbol>
<symbol id="icon-help" viewBox="0 0 31 32">
<path d="M30.72 16c0 4.074-1.618 7.981-4.499 10.861s-6.787 4.499-10.861 4.499-7.981-1.618-10.861-4.499c-2.881-2.881-4.499-6.787-4.499-10.861s1.618-7.981 4.499-10.861c2.881-2.881 6.787-4.499 10.861-4.499s7.981 1.618 10.861 4.499c2.881 2.881 4.499 6.787 4.499 10.861zM10.552 12.223h1.584c0.265 0 0.476-0.217 0.511-0.48 0.173-1.26 1.037-2.177 2.577-2.177 1.317 0 2.523 0.659 2.523 2.243 0 1.219-0.718 1.78-1.853 2.632-1.292 0.939-2.316 2.035-2.243 3.815l0.006 0.417c0.002 0.126 0.053 0.246 0.143 0.334s0.211 0.138 0.337 0.138h1.557c0.127 0 0.249-0.051 0.339-0.141s0.141-0.212 0.141-0.339v-0.202c0-1.379 0.524-1.78 1.939-2.853 1.169-0.889 2.388-1.876 2.388-3.948 0-2.901-2.45-4.303-5.132-4.303-2.433 0-5.098 1.133-5.28 4.389-0.003 0.062 0.007 0.124 0.030 0.182s0.056 0.111 0.099 0.155c0.043 0.044 0.095 0.079 0.153 0.103s0.119 0.035 0.181 0.034zM15.016 24.594c1.171 0 1.976-0.756 1.976-1.78 0-1.060-0.806-1.805-1.976-1.805-1.121 0-1.937 0.745-1.937 1.805 0 1.023 0.816 1.78 1.939 1.78h-0.002z"></path>
</symbol>
<symbol id="icon-invoices" viewBox="0 0 31 32">
<path d="M23.040 0.64h-15.36c-1.018 0-1.995 0.405-2.715 1.125s-1.125 1.697-1.125 2.715v23.040c0 1.018 0.405 1.995 1.125 2.715s1.697 1.125 2.715 1.125h15.36c1.018 0 1.995-0.405 2.715-1.125s1.125-1.697 1.125-2.715v-23.040c0-1.018-0.405-1.995-1.125-2.715s-1.697-1.125-2.715-1.125v0zM9.6 8.32h11.52c0.255 0 0.499 0.101 0.679 0.281s0.281 0.424 0.281 0.679-0.101 0.499-0.281 0.679c-0.18 0.18-0.424 0.281-0.679 0.281h-11.52c-0.255 0-0.499-0.101-0.679-0.281s-0.281-0.424-0.281-0.679c0-0.255 0.101-0.499 0.281-0.679s0.424-0.281 0.679-0.281zM8.64 13.12c0-0.255 0.101-0.499 0.281-0.679s0.424-0.281 0.679-0.281h11.52c0.255 0 0.499 0.101 0.679 0.281s0.281 0.424 0.281 0.679-0.101 0.499-0.281 0.679c-0.18 0.18-0.424 0.281-0.679 0.281h-11.52c-0.255 0-0.499-0.101-0.679-0.281s-0.281-0.424-0.281-0.679zM9.6 16h11.52c0.255 0 0.499 0.101 0.679 0.281s0.281 0.424 0.281 0.679-0.101 0.499-0.281 0.679c-0.18 0.18-0.424 0.281-0.679 0.281h-11.52c-0.255 0-0.499-0.101-0.679-0.281s-0.281-0.424-0.281-0.679 0.101-0.499 0.281-0.679c0.18-0.18 0.424-0.281 0.679-0.281zM9.6 19.84h5.76c0.255 0 0.499 0.101 0.679 0.281s0.281 0.424 0.281 0.679-0.101 0.499-0.281 0.679c-0.18 0.18-0.424 0.281-0.679 0.281h-5.76c-0.255 0-0.499-0.101-0.679-0.281s-0.281-0.424-0.281-0.679 0.101-0.499 0.281-0.679c0.18-0.18 0.424-0.281 0.679-0.281z"></path>
</symbol>
<symbol id="icon-settings" viewBox="0 0 31 32">
<path d="M18.058 2.656c-0.793-2.688-4.602-2.688-5.395 0l-0.192 0.653c-0.118 0.402-0.326 0.773-0.606 1.085s-0.627 0.557-1.015 0.718c-0.388 0.161-0.806 0.232-1.225 0.21s-0.828-0.138-1.196-0.339l-0.595-0.326c-2.463-1.34-5.157 1.354-3.815 3.815l0.324 0.597c0.856 1.574 0.044 3.535-1.674 4.042l-0.653 0.192c-2.688 0.793-2.688 4.602 0 5.395l0.653 0.192c0.402 0.119 0.773 0.326 1.085 0.606s0.557 0.627 0.718 1.015c0.161 0.387 0.232 0.806 0.21 1.225s-0.138 0.828-0.339 1.196l-0.326 0.595c-1.34 2.463 1.354 5.157 3.815 3.815l0.597-0.324c0.368-0.201 0.777-0.317 1.196-0.339s0.838 0.050 1.225 0.21c0.388 0.16 0.734 0.406 1.015 0.718s0.488 0.683 0.606 1.085l0.192 0.653c0.793 2.688 4.602 2.688 5.395 0l0.192-0.653c0.119-0.402 0.326-0.773 0.606-1.085s0.627-0.557 1.015-0.718c0.387-0.16 0.806-0.232 1.225-0.21s0.828 0.138 1.196 0.339l0.595 0.326c2.463 1.34 5.157-1.354 3.815-3.815l-0.324-0.597c-0.201-0.368-0.317-0.777-0.339-1.196s0.050-0.837 0.21-1.225c0.16-0.388 0.406-0.734 0.718-1.015s0.683-0.487 1.085-0.606l0.653-0.192c2.688-0.793 2.688-4.602 0-5.395l-0.653-0.192c-0.402-0.119-0.773-0.326-1.085-0.606s-0.557-0.627-0.718-1.015-0.232-0.806-0.21-1.225c0.022-0.419 0.138-0.828 0.339-1.196l0.326-0.595c1.34-2.463-1.354-5.157-3.815-3.815l-0.597 0.324c-0.368 0.201-0.777 0.317-1.196 0.339s-0.837-0.050-1.225-0.21c-0.388-0.161-0.734-0.406-1.015-0.718s-0.487-0.683-0.606-1.085l-0.192-0.653zM15.36 21.626c-1.492 0-2.923-0.593-3.978-1.648s-1.648-2.486-1.648-3.978 0.593-2.923 1.648-3.978c1.055-1.055 2.486-1.648 3.978-1.648s2.922 0.592 3.977 1.647c1.055 1.055 1.647 2.485 1.647 3.977s-0.593 2.922-1.647 3.977c-1.055 1.055-2.485 1.647-3.977 1.647v0.004z"></path>
</symbol>
<symbol id="icon-three-dots" viewBox="0 0 31 32">
<path d="M5.76 19c-0.764 0-1.496-0.316-2.036-0.879s-0.844-1.326-0.844-2.121 0.303-1.559 0.844-2.121c0.54-0.563 1.273-0.879 2.036-0.879s1.496 0.316 2.036 0.879c0.54 0.563 0.844 1.326 0.844 2.121s-0.303 1.559-0.844 2.121c-0.54 0.563-1.273 0.879-2.036 0.879zM15.36 19c-0.764 0-1.496-0.316-2.036-0.879s-0.844-1.326-0.844-2.121 0.303-1.559 0.844-2.121c0.54-0.563 1.273-0.879 2.036-0.879s1.496 0.316 2.036 0.879c0.54 0.563 0.844 1.326 0.844 2.121s-0.303 1.559-0.844 2.121c-0.54 0.563-1.273 0.879-2.036 0.879zM24.96 19c-0.764 0-1.496-0.316-2.036-0.879s-0.844-1.326-0.844-2.121 0.303-1.559 0.844-2.121c0.54-0.563 1.273-0.879 2.036-0.879s1.496 0.316 2.036 0.879c0.54 0.563 0.844 1.326 0.844 2.121s-0.303 1.559-0.844 2.121c-0.54 0.563-1.273 0.879-2.036 0.879z"></path>
</symbol>
<symbol id="icon-transfer" viewBox="0 0 31 32">
<path d="M2.559 5.761c0-2.828 5.731-5.121 12.801-5.121s12.801 2.292 12.801 5.121v2.559c0 2.828-5.731 5.121-12.801 5.121s-12.801-2.292-12.801-5.121v-2.559z"></path>
<path d="M2.559 12.801v5.76c0 2.824 5.731 5.119 12.801 5.119s12.801-2.292 12.801-5.121v-5.758c-0.865 0.623-1.805 1.133-2.799 1.517-2.686 1.075-6.225 1.682-10.001 1.682-3.775 0-7.313-0.609-9.999-1.682-0.994-0.384-1.935-0.894-2.799-1.517h-0.002z"></path>
<path d="M28.161 23.043c-0.865 0.622-1.805 1.131-2.799 1.515-2.688 1.075-6.225 1.682-10.003 1.682-3.775 0-7.313-0.607-9.999-1.682-0.994-0.384-1.935-0.894-2.799-1.517v3.199c0 2.828 5.731 5.121 12.801 5.121s12.801-2.292 12.801-5.121v-3.197z"></path>
</symbol>
<symbol id="icon-wallet" viewBox="0 0 31 32">
<path d="M2.88 4.48c-0.764 0-1.496 0.303-2.036 0.844s-0.844 1.273-0.844 2.036v3.84h11.52c0.255 0 0.499 0.101 0.679 0.281s0.281 0.424 0.281 0.679c0 0.486 0.154 1.236 0.588 1.839 0.397 0.553 1.069 1.041 2.292 1.041s1.895-0.488 2.292-1.041c0.434-0.603 0.588-1.354 0.588-1.839 0-0.255 0.101-0.499 0.281-0.679s0.424-0.281 0.679-0.281h11.52v-3.84c0-0.764-0.303-1.496-0.844-2.036s-1.273-0.844-2.036-0.844h-24.96z"></path>
<path d="M30.72 13.12h-10.658c-0.138 0.72-0.428 1.402-0.851 2.001-0.755 1.048-2.003 1.839-3.852 1.839s-3.097-0.791-3.852-1.839c-0.423-0.599-0.713-1.281-0.851-2.001h-10.658v11.52c0 0.764 0.303 1.496 0.844 2.036s1.273 0.844 2.036 0.844h24.96c0.764 0 1.496-0.303 2.036-0.844s0.844-1.273 0.844-2.036v-11.52z"></path>
</symbol>
<symbol id="icon-so-wallet-coin" viewBox="0 0 32 32">
<path d="M29.333 22.667c0 1.055-0.313 2.086-0.899 2.963s-1.419 1.561-2.393 1.964c-0.975 0.404-2.047 0.509-3.081 0.303s-1.985-0.714-2.731-1.46c-0.746-0.746-1.254-1.696-1.46-2.731s-0.1-2.107 0.303-3.081c0.404-0.974 1.087-1.807 1.964-2.393s1.908-0.899 2.963-0.899c1.415 0 2.771 0.562 3.771 1.562s1.562 2.357 1.562 3.771zM28 4h-22.667c-0.707 0-1.386 0.281-1.886 0.781s-0.781 1.178-0.781 1.886v18.667c0 0.707 0.281 1.385 0.781 1.886s1.178 0.781 1.886 0.781h12.72c-1.372-1.52-2.107-3.509-2.055-5.555s0.889-3.995 2.337-5.443 3.396-2.284 5.443-2.337c2.047-0.053 4.035 0.683 5.555 2.055v-6.053c0-0.354-0.14-0.693-0.391-0.943s-0.589-0.391-0.943-0.391h-21.333c-0.354 0-0.693-0.14-0.943-0.391s-0.391-0.589-0.391-0.943c0-0.354 0.14-0.693 0.391-0.943s0.589-0.391 0.943-0.391h22.667v-1.333c0-0.354-0.14-0.693-0.391-0.943s-0.589-0.391-0.943-0.391z"></path>
</symbol>
<symbol id="icon-menu" viewBox="0 0 32 32">
<path d="M2 6h28v6h-28zM2 14h28v6h-28zM2 22h28v6h-28z"></path>
</symbol>
</defs>
</svg>
